<svg width="951" height="167" viewBox="0 0 951 167" fill="none" xmlns="http://www.w3.org/2000/svg">
<path d="M42.94 108.72C46.38 108.72 49.61 108.06 52.64 106.75C55.67 105.44 58.33 103.66 60.63 101.42C62.92 99.19 64.72 96.56 66.04 93.52C67.36 90.49 68.01 87.19 68.01 83.65H85.88C85.88 89.6 84.76 95.19 82.53 100.4C80.3 105.61 77.23 110.16 73.34 114.05C69.45 117.95 64.89 121.01 59.69 123.24C54.48 125.47 48.89 126.59 42.94 126.59C36.98 126.59 31.4 125.47 26.19 123.24C20.98 121.01 16.43 117.95 12.53 114.05C8.64 110.16 5.58 105.61 3.34 100.4C1.11 95.19 0 89.6 0 83.65C0 77.7 1.11 72.12 3.34 66.9C5.58 61.69 8.64 57.14 12.53 53.24C16.43 49.35 20.98 46.29 26.19 44.05C31.4 41.82 36.98 40.71 42.94 40.71C48.78 40.71 54.22 41.77 59.26 43.88C64.3 46 68.76 48.9 72.66 52.56L73 52.9L84.68 64.93L65.44 83.99H41.73L60.11 65.1C57.93 63.15 55.36 61.58 52.38 60.37C49.4 59.17 46.25 58.57 42.93 58.57C39.49 58.57 36.25 59.23 33.23 60.54C30.19 61.86 27.53 63.66 25.24 65.95C22.95 68.24 21.15 70.91 19.83 73.94C18.51 76.97 17.86 80.21 17.86 83.64C17.86 87.07 18.52 90.31 19.83 93.34C21.15 96.37 22.95 99.04 25.24 101.33C27.53 103.63 30.19 105.43 33.23 106.74C36.26 108.07 39.5 108.72 42.94 108.72Z" fill="#B8EB1D"/>
<path d="M136.72 108.72C140.27 108.72 143.47 108.12 146.34 106.92C149.2 105.72 151.78 104.09 154.07 102.03L166.95 114.39L166.61 114.74C162.83 118.41 158.37 121.3 153.21 123.41C148.06 125.53 142.56 126.59 136.72 126.59C130.88 126.59 125.36 125.47 120.14 123.24C114.93 121.01 110.38 117.95 106.49 114.05C102.59 110.16 99.51 105.61 97.21 100.4C94.92 95.1899 93.77 89.5999 93.77 83.6499C93.77 77.6999 94.92 72.0799 97.21 66.8199C99.5 61.5499 102.59 56.9699 106.49 53.0699C110.38 49.1799 114.93 46.1199 120.14 43.8799C125.35 41.6499 130.88 40.5399 136.72 40.5399C142.56 40.5399 148.06 41.5999 153.21 43.7099C158.36 45.8299 162.83 48.7199 166.61 52.3899L166.95 52.7299L154.07 65.0999C151.77 63.0399 149.2 61.4099 146.34 60.1999C143.48 58.9999 140.27 58.3999 136.72 58.3999C133.28 58.3999 130.05 59.0599 127.02 60.3699C123.99 61.6799 121.32 63.4899 119.03 65.7799C116.73 68.0699 114.93 70.7599 113.62 73.8599C112.3 76.9499 111.65 80.2099 111.65 83.6499C111.65 87.0899 112.31 90.3199 113.62 93.3499C114.93 96.3799 116.73 99.0499 119.03 101.34C121.31 103.64 123.98 105.44 127.02 106.75C130.05 108.07 133.28 108.72 136.72 108.72Z" fill="#B8EB1D"/>
<path d="M197.885 112.569L191.524 108.225C187.705 105.616 185.42 101.289 185.42 96.6636V70.9387C185.42 66.0211 188 61.464 192.217 58.9338L216.221 44.5317C220.654 41.8716 226.193 41.8716 230.626 44.5317L254.63 58.9338C258.847 61.464 261.427 66.0211 261.427 70.9387V96.0193C261.427 100.996 258.785 105.599 254.487 108.109L230.031 122.391C225.913 124.796 220.855 124.94 216.608 122.773L216.163 122.546C211.476 120.155 208.526 115.337 208.526 110.076C208.526 108.005 208.526 105.869 208.526 104.056" stroke="white" stroke-width="12"/>
<path d="M200.143 100.945C185.484 65.1366 242.376 62.566 242.888 63.7148C243.388 64.8365 255.106 106.484 202.509 104.052C202.672 104.314 202.337 103.788 202.509 104.052C210.919 90.907 217.793 86.9511 234.432 74.5615C212.625 84.6446 206.556 89.5058 200.143 100.945Z" fill="#B8EB1D"/>
<path d="M318.969 40.71C324.919 40.71 330.499 41.82 335.719 44.05C340.929 46.29 345.479 49.35 349.369 53.24C353.259 57.14 356.329 61.69 358.559 66.9C360.789 72.11 361.909 77.7 361.909 83.65C361.909 89.6 360.789 95.19 358.559 100.4C356.329 105.61 353.259 110.16 349.369 114.05C345.479 117.95 340.919 121.01 335.719 123.24C330.509 125.47 324.919 126.59 318.969 126.59C313.009 126.59 307.429 125.47 302.219 123.24C297.009 121.01 292.459 117.95 288.559 114.05C284.669 110.16 281.609 105.61 279.379 100.4C277.139 95.19 276.029 89.6 276.029 83.65V18.38L293.889 0.859985V83.65C293.889 87.09 294.549 90.32 295.859 93.35C297.179 96.38 298.979 99.05 301.269 101.34C303.559 103.64 306.229 105.44 309.259 106.75C312.289 108.07 315.529 108.72 318.959 108.72C322.389 108.72 325.629 108.06 328.659 106.75C331.689 105.44 334.349 103.64 336.649 101.34C338.939 99.06 340.739 96.39 342.059 93.35C343.379 90.32 344.029 87.08 344.029 83.65C344.029 80.22 343.369 76.98 342.059 73.95C340.739 70.92 338.939 68.25 336.649 65.96C334.359 63.67 331.699 61.87 328.659 60.55C325.629 59.24 322.389 58.58 318.959 58.58C317.809 58.58 316.729 58.64 315.689 58.75C314.659 58.87 313.689 59.04 312.769 59.27L308.639 41.92C310.249 41.7 311.879 41.43 313.539 41.15C315.219 40.85 317.019 40.71 318.969 40.71Z" fill="white"/>
<path d="M372.35 83.65C372.23 77.81 373.29 72.29 375.52 67.07C377.75 61.86 380.82 57.31 384.71 53.41C388.6 49.52 393.18 46.43 398.46 44.13C403.73 41.85 409.34 40.7 415.29 40.7V58.56C411.85 58.56 408.61 59.22 405.59 60.53C402.55 61.85 399.89 63.62 397.6 65.86C395.31 68.09 393.51 70.76 392.19 73.85C390.87 76.94 390.22 80.2 390.22 83.64V126.58H372.36V83.65H372.35Z" fill="white"/>
<path d="M444.82 40.71H427.13V126.59H444.82V40.71Z" fill="white"/>
<path d="M544.079 149.09L526.22 166.96V83.9999V83.6599C526.22 80.2199 525.56 76.9899 524.24 73.9599C522.92 70.9299 521.15 68.2599 518.92 65.9699C516.68 63.6799 514.02 61.8799 510.93 60.5599C507.84 59.2499 504.579 58.5899 501.139 58.5899C497.699 58.5899 494.44 59.2499 491.35 60.5599C488.26 61.8799 485.56 63.6799 483.27 65.9699C480.98 68.2599 479.18 70.9299 477.86 73.9599C476.54 76.9899 475.89 80.2299 475.89 83.6599C475.89 87.2099 476.55 90.5299 477.86 93.6199C479.18 96.7099 480.98 99.4099 483.27 101.7C485.56 103.99 488.25 105.79 491.35 107.1C494.44 108.42 497.699 109.08 501.139 109.08C503.089 109.08 505.2 108.73 507.49 108.05L511.45 125.4C509.84 125.98 508.15 126.32 506.38 126.43C504.6 126.54 502.859 126.6 501.139 126.6C495.639 126.6 490.43 125.63 485.51 123.68C480.58 121.74 476.2 119.05 472.36 115.61C468.52 112.17 465.38 108.17 462.91 103.59C460.45 99.0099 458.93 94.0799 458.36 88.8199C458.13 88.0199 458.02 87.1899 458.02 86.3299C458.02 85.4699 458.02 84.5899 458.02 83.6699C458.02 77.8299 459.13 72.2699 461.37 67.0099C463.6 61.7399 466.66 57.1599 470.56 53.2599C474.45 49.3699 479.03 46.2799 484.3 43.9799C489.57 41.6999 495.18 40.5499 501.13 40.5499C507.08 40.5499 512.66 41.6999 517.88 43.9799C523.09 46.2799 527.64 49.3599 531.53 53.2599C535.43 57.1599 538.49 61.7399 540.72 67.0099C542.96 72.2799 544.07 77.8299 544.07 83.6699V84.0099V149.09H544.079Z" fill="white"/>
<path d="M642.83 83.65C642.94 89.49 641.88 95.01 639.65 100.23C637.42 105.44 634.35 109.96 630.46 113.8C626.57 117.64 622.01 120.7 616.81 122.99C611.6 125.28 606.07 126.49 600.23 126.6H599.89C594.05 126.49 588.52 125.28 583.31 122.99C578.1 120.7 573.55 117.64 569.65 113.8C565.76 109.96 562.7 105.45 560.46 100.23C558.23 95.02 557.17 89.49 557.29 83.65V40.71H575.33L575.15 83.65C575.15 87.09 575.78 90.32 577.04 93.35C578.3 96.38 580.05 99.05 582.28 101.34C584.51 103.64 587.14 105.44 590.19 106.75C593.22 108.07 596.46 108.72 599.89 108.72C603.44 108.72 606.73 108.06 609.76 106.75C612.79 105.44 615.43 103.64 617.66 101.34C619.9 99.06 621.67 96.39 622.99 93.35C624.31 90.32 624.96 87.08 624.96 83.65V40.71H642.83V83.65Z" fill="white"/>
<path d="M698.99 108.72C702.42 108.72 705.66 108.06 708.69 106.75C711.72 105.44 714.38 103.66 716.68 101.42C718.97 99.19 720.77 96.56 722.09 93.52C723.41 90.49 724.06 87.19 724.06 83.65H741.93C741.93 89.6 740.81 95.19 738.58 100.4C736.35 105.61 733.28 110.16 729.39 114.05C725.49 117.95 720.94 121.01 715.74 123.24C710.53 125.47 704.94 126.59 698.99 126.59C693.03 126.59 687.45 125.47 682.24 123.24C677.03 121.01 672.48 117.95 668.59 114.05C664.7 110.16 661.63 105.61 659.4 100.4C657.17 95.19 656.05 89.6 656.05 83.65C656.05 77.7 657.17 72.12 659.4 66.9C661.63 61.69 664.7 57.14 668.59 53.24C672.48 49.35 677.04 46.29 682.24 44.05C687.45 41.82 693.04 40.71 698.99 40.71C704.83 40.71 710.27 41.77 715.3 43.88C720.34 46 724.81 48.9 728.7 52.56L729.04 52.9L740.72 64.93L721.48 83.99H697.77L716.15 65.1C713.97 63.15 711.4 61.58 708.42 60.37C705.44 59.17 702.29 58.57 698.97 58.57C695.53 58.57 692.29 59.23 689.26 60.54C686.23 61.86 683.57 63.66 681.27 65.95C678.98 68.24 677.18 70.91 675.86 73.94C674.54 76.97 673.89 80.21 673.89 83.64C673.89 87.07 674.55 90.31 675.86 93.34C677.18 96.37 678.98 99.04 681.27 101.33C683.56 103.63 686.22 105.43 689.26 106.74C692.31 108.07 695.55 108.72 698.99 108.72Z" fill="white"/>
<path d="M773 83.48C773 86.92 773.66 90.17 774.97 93.27C776.28 96.37 778.09 99.06 780.38 101.34C782.67 103.64 785.36 105.44 788.45 106.75C791.54 108.07 794.81 108.72 798.25 108.72V126.59C792.4 126.59 786.91 125.47 781.76 123.24C776.61 121.01 772.08 118 768.19 114.22C764.3 110.44 761.18 105.98 758.83 100.82C756.49 95.67 755.25 90.17 755.14 84.33V18.03L773.01 0V40.71H797.91V58.57H773.01V81.25V83.48H773Z" fill="white"/>
<path d="M829.32 83.48C829.32 86.92 829.98 90.17 831.29 93.27C832.6 96.37 834.41 99.06 836.7 101.34C838.99 103.64 841.68 105.44 844.77 106.75C847.86 108.07 851.13 108.72 854.57 108.72V126.59C848.72 126.59 843.23 125.47 838.08 123.24C832.93 121.01 828.4 118 824.51 114.22C820.62 110.44 817.5 105.98 815.15 100.82C812.81 95.67 811.57 90.17 811.46 84.33V18.03L829.33 0V40.71H854.23V58.57H829.33V81.25V83.48H829.32Z" fill="white"/>
<path d="M907.86 108.72C911.29 108.72 914.53 108.06 917.56 106.75C920.59 105.44 923.25 103.66 925.55 101.42C927.84 99.19 929.64 96.56 930.96 93.52C932.28 90.49 932.93 87.19 932.93 83.65H950.8C950.8 89.6 949.68 95.19 947.45 100.4C945.22 105.61 942.15 110.16 938.26 114.05C934.36 117.95 929.81 121.01 924.61 123.24C919.4 125.47 913.81 126.59 907.86 126.59C901.9 126.59 896.32 125.47 891.11 123.24C885.9 121.01 881.35 117.95 877.46 114.05C873.57 110.16 870.5 105.61 868.27 100.4C866.04 95.19 864.92 89.6 864.92 83.65C864.92 77.7 866.04 72.12 868.27 66.9C870.5 61.69 873.57 57.14 877.46 53.24C881.35 49.35 885.91 46.29 891.11 44.05C896.32 41.82 901.91 40.71 907.86 40.71C913.7 40.71 919.14 41.77 924.17 43.88C929.21 46 933.68 48.9 937.57 52.56L937.91 52.9L949.59 64.93L930.35 83.99H906.64L925.02 65.1C922.84 63.15 920.27 61.58 917.29 60.37C914.31 59.17 911.16 58.57 907.84 58.57C904.4 58.57 901.16 59.23 898.13 60.54C895.1 61.86 892.44 63.66 890.14 65.95C887.85 68.24 886.05 70.91 884.73 73.94C883.41 76.97 882.76 80.21 882.76 83.64C882.76 87.07 883.42 90.31 884.73 93.34C886.05 96.37 887.85 99.04 890.14 101.33C892.43 103.63 895.09 105.43 898.13 106.74C901.19 108.07 904.43 108.72 907.86 108.72Z" fill="white"/>
<path d="M444.82 22.5H427.13V18.72L444.82 0.849976V22.5Z" fill="white"/>
</svg>
