<svg width="88" height="94" viewBox="0 0 88 94" fill="none" xmlns="http://www.w3.org/2000/svg">
<path d="M18.4652 76.0321L12.1045 71.6882C8.28474 69.0796 6 64.7526 6 60.127V34.4021C6 29.4844 8.58018 24.9274 12.7971 22.3972L36.8006 7.99511C41.2341 5.33497 46.7729 5.33497 51.2065 7.9951L75.21 22.3972C79.4269 24.9273 82.0071 29.4844 82.0071 34.4021V59.4827C82.0071 64.4596 79.3649 69.0623 75.0673 71.5721L50.6107 85.8547C46.4933 88.2593 41.4352 88.403 37.188 86.236L36.7436 86.0093C32.0565 83.6179 29.1061 78.8008 29.1061 73.5389C29.1061 71.4685 29.1061 69.3322 29.1061 67.5193" stroke="white" stroke-width="12"/>
<path d="M20.7227 64.4086C6.06442 28.6 62.956 26.0294 63.4684 27.1782C63.9676 28.2999 75.6865 69.9479 23.0896 67.5156C23.2519 67.777 22.9173 67.2513 23.0896 67.5156C31.4992 54.3704 38.3726 50.4145 55.0125 38.0249C33.2052 48.1079 27.1363 52.9691 20.7227 64.4086Z" fill="#B8EB1D"/>
</svg>
